<svg xmlns="http://www.w3.org/2000/svg" width="161" height="161" fill="none" viewBox="0 0 161 161"><path fill="#8B55FF" d="M90.4651 114.313C90.7113 114.241 90.9563 114.166 91.2002 114.088L124.822 147.71C120.056 150.86 114.934 153.517 109.531 155.607C100.525 159.09 90.7355 161 80.5 161C77.7213 161 74.9755 160.859 72.2693 160.584C49.2404 158.246 29.0811 146.2 15.9473 128.604C10.8125 121.724 6.75146 113.997 4.0127 105.669C4.01267 105.669 4.01272 105.669 4.0127 105.669C1.40868 97.7505 0 89.2897 0 80.5C0 36.0411 36.0411 0 80.5 0C124.959 0 161 36.0411 161 80.5C161 94.8798 157.229 108.379 150.623 120.063C146.986 126.496 142.489 132.378 137.289 137.555C137.191 137.652 137.093 137.75 136.994 137.847L104.989 105.843C110.79 100.236 114.672 92.6549 115.552 84.1825C115.678 82.9721 115.742 81.7436 115.742 80.5C115.742 78.9144 115.637 77.3533 115.434 75.8232C115.17 73.8316 114.74 71.8924 114.158 70.0201C113.928 69.283 113.676 68.5563 113.4 67.8409C108.314 54.6314 95.5019 45.2581 80.5 45.2581C61.0364 45.2581 45.2581 61.0364 45.2581 80.5C45.2581 93.3137 52.0964 104.53 62.3226 110.699C66.1737 113.022 70.5052 114.629 75.133 115.336C76.883 115.603 78.6753 115.742 80.5 115.742C83.9608 115.742 87.3055 115.243 90.4651 114.313Z"/></svg>