
<svg width="137" height="47" viewBox="0 0 137 47" fill="none" xmlns="http://www.w3.org/2000/svg">
<path d="M6.00079 0.107727L12.1051 6.14102L12.1113 38.2909L6.0132 32.096L6.00079 0.107727Z" fill="white"/>
<path d="M14.7053 23.5942L0 23.5901L6.01948 29.7063H20.7041L14.7053 23.5942Z" fill="white"/>
<path d="M12.1092 20.9495L2.81731 11.6705L2.75732 20.2179L12.1092 29.7103V20.9495Z" fill="white"/>
<path d="M6.00909 23.5176L29.1479 47L29.1437 38.3097L12.1092 20.9497L12.1506 16.0252C12.1982 10.4935 16.7097 6.0478 22.2307 6.09547H40.7897L35.035 0.11192L22.2803 0.00414517L21.908 0V0.00414517C13.2014 0.1285 6.14562 7.20223 6.07115 15.9734L6.00909 23.5176Z" fill="white"/>
<g style="mix-blend-mode:multiply">
<path d="M12.0805 6.12238L10.7235 4.77313C7.87923 7.65195 6.10648 11.6002 6.07132 15.9713L6.04236 32.1271L12.1094 38.2951V20.9497V20.9165V20.6885L12.0805 6.12446V6.12238Z" fill="#DADADA"/>
</g>
<path d="M6.00909 23.5176V32.0961L20.6317 46.9938L29.15 47L6.00909 23.5176Z" fill="#EDEDED"/>
<path d="M29.1417 32.7613L35.0288 26.9435L35.035 6.09332H29.152L29.1417 32.7613Z" fill="white"/>
<path d="M29.1479 32.7573L33.5022 28.4463L22.3775 17.1113C19.9822 19.472 19.9449 23.3291 22.2927 25.7354L29.1458 32.7573H29.1479Z" fill="white"/>
<path d="M29.1583 6.0933H35.0185V0.113892L29.1583 6.0933Z" fill="#DADADA"/>
<path d="M29.1458 24.0068L29.1417 32.751L29.1479 32.7572L33.5022 28.4463L29.1458 24.0068Z" fill="#EDEDED"/>
<g style="mix-blend-mode:multiply">
<path d="M14.7053 23.5943L12.1093 23.5922V29.7084H20.7041L14.7053 23.5943Z" fill="#DADADA"/>
</g>
<g style="mix-blend-mode:multiply">
<path d="M6.00909 23.5176V29.7084H12.1092L6.00909 23.5176Z" fill="#EDEDED"/>
</g>
<g style="mix-blend-mode:multiply">
<path d="M12.1092 20.9517V20.9497L6.11252 14.9599C6.08977 15.2957 6.07529 15.6314 6.07115 15.9734L6.00909 23.3704V23.5176L12.1072 29.7063V22.131V20.9517H12.1092Z" fill="#EDEDED"/>
</g>
<g style="mix-blend-mode:multiply">
<path d="M12.1094 23.5944H6.08582L12.0805 29.6795L12.1094 29.7085V23.5944Z" fill="#DADADA"/>
</g>
<path d="M49.2892 21.4554C51.0992 21.4554 51.9742 20.4336 52.2452 18.9952H55.741C55.1577 22.0813 53.0974 24.2285 49.2892 24.2285C44.8563 24.2285 42.0059 21.0802 42.0059 16.535C42.0059 11.9899 44.8563 8.84161 49.2892 8.84161C53.0974 8.84161 55.1577 10.9681 55.741 14.0749H52.2452C51.9742 12.6365 51.1013 11.6147 49.2892 11.6147C46.9373 11.6147 45.6672 13.449 45.6672 16.535C45.6672 19.6211 46.9373 21.4554 49.2892 21.4554Z" fill="white"/>
<path d="M57.6152 9.09033H61.2144V15.0532H67.8731V9.09033H71.4951V23.9798H67.8731V17.8076H61.2144V23.9798H57.6152V9.09033Z" fill="white"/>
<path d="M74.2216 23.9798V9.09033H85.4601V11.8634H77.7402V15.1153H84.5458V17.8885H77.7402V21.1839H85.6069V23.9777H74.2237L74.2216 23.9798Z" fill="white"/>
<path d="M90.3728 19.3911C90.5383 21.101 92.0794 21.644 93.6411 21.644C95.0974 21.644 96.3261 21.0596 96.3261 19.8305C96.3261 18.8916 95.7221 18.4543 94.1003 18.1828L91.4774 17.704C89.1462 17.2875 87.3569 16.1392 87.3569 13.4926C87.3569 10.678 89.895 8.84375 93.2874 8.84375C97.1163 8.84375 99.3007 10.5329 99.5923 13.4097H96.1999C96.0758 12.1164 94.9505 11.4283 93.3288 11.4283C91.8518 11.4283 90.8734 12.1578 90.8734 13.221C90.8734 14.2843 91.6015 14.5351 93.0164 14.8066L95.8462 15.3496C98.4277 15.8076 99.8633 17.1424 99.8633 19.5818C99.8633 22.4586 97.199 24.2327 93.7652 24.2327C89.957 24.2327 87.21 22.6679 86.8976 19.3953H90.3728V19.3911Z" fill="white"/>
<path d="M104.232 19.3911C104.398 21.101 105.939 21.644 107.5 21.644C108.957 21.644 110.185 21.0596 110.185 19.8305C110.185 18.8916 109.581 18.4543 107.96 18.1828L105.337 17.704C103.005 17.2875 101.216 16.1392 101.216 13.4926C101.216 10.678 103.754 8.84375 107.147 8.84375C110.976 8.84375 113.16 10.5329 113.452 13.4097H110.059C109.935 12.1164 108.81 11.4283 107.188 11.4283C105.711 11.4283 104.733 12.1578 104.733 13.221C104.733 14.2843 105.461 14.5351 106.876 14.8066L109.705 15.3496C112.287 15.8076 113.723 17.1424 113.723 19.5818C113.723 22.4586 111.058 24.2327 107.625 24.2327C103.816 24.2327 101.069 22.6679 100.757 19.3953H104.232V19.3911Z" fill="white"/>
<path d="M49.2892 40.2911C51.0992 40.2911 51.9742 39.2693 52.2452 37.8309H55.741C55.1577 40.917 53.0974 43.0642 49.2892 43.0642C44.8563 43.0642 42.0059 39.9159 42.0059 35.3707C42.0059 30.8256 44.8563 27.6773 49.2892 27.6773C53.0974 27.6773 55.1577 29.8038 55.741 32.9106H52.2452C51.9742 31.4722 51.1013 30.4504 49.2892 30.4504C46.9373 30.4504 45.6672 32.2847 45.6672 35.3707C45.6672 38.4568 46.9373 40.2911 49.2892 40.2911Z" fill="white"/>
<path d="M57.6152 27.926H61.2144V33.8888H67.8731V27.926H71.4951V42.8134H67.8731V36.6412H61.2144V42.8134H57.6152V27.926Z" fill="white"/>
<path d="M83.9209 39.6237H77.6367L76.408 42.8134H72.8914L78.8013 27.926H82.8598L88.7903 42.8134H85.1062L83.9209 39.6237ZM78.6772 36.8713H82.9011L80.8409 31.3665H80.7788L78.6772 36.8713Z" fill="white"/>
<path d="M97.199 42.8132L93.4942 32.3032H93.4528V42.8132H90.1866V27.9466H95.0973L98.5725 37.9344H98.6139L102.089 27.9466H106.896V42.8132H103.442V32.3032H103.4L99.6957 42.8132H97.199Z" fill="white"/>
<path d="M113.139 37.7874V42.8134H109.623V27.926H116.302C120.027 27.926 122.15 29.6152 122.15 32.8671C122.15 36.1189 120.027 37.7874 116.343 37.7874H113.139ZM115.928 35.0143C117.8 35.0143 118.613 34.264 118.613 32.8671C118.613 31.4701 117.802 30.6991 115.928 30.6991H113.139V35.0163H115.928V35.0143Z" fill="white"/>
<path d="M126.564 38.2268C126.73 39.9367 128.271 40.4797 129.833 40.4797C131.289 40.4797 132.518 39.8953 132.518 38.6662C132.518 37.7273 131.914 37.29 130.292 37.0185L127.669 36.5397C125.338 36.1232 123.548 34.9749 123.548 32.3282C123.548 29.5137 126.086 27.6794 129.479 27.6794C133.308 27.6794 135.492 29.3686 135.784 32.2453H132.391C132.267 30.9521 131.142 30.264 129.52 30.264C128.043 30.264 127.065 30.9935 127.065 32.0567C127.065 33.12 127.793 33.3708 129.208 33.6423L132.038 34.1853C134.619 34.6433 136.055 35.9781 136.055 38.4175C136.055 41.2943 133.39 43.0663 129.957 43.0663C126.148 43.0663 123.401 41.5015 123.089 38.2289H126.564V38.2268Z" fill="white"/>
</svg>
